<svg xmlns="http://www.w3.org/2000/svg" width="1200" height="800" viewBox="0 0 1200 800" fill="none">
 <defs><linearGradient id="bg" x1="0" y1="0" x2="1" y2="1"><stop stop-color="#F7F0EC"/><stop offset="1" stop-color="#FFF7F3"/></linearGradient></defs>
 <rect width="1200" height="800" rx="44" fill="url(#bg)"/>
 <rect x="96" y="126" width="1008" height="470" rx="40" fill="#FFFFFF" opacity=".84"/>
 <rect x="142" y="190" width="910" height="86" rx="12" fill="#241619" opacity=".09"/>
 <rect x="142" y="335" width="910" height="86" rx="12" fill="#241619" opacity=".09"/>
 <rect x="142" y="480" width="910" height="86" rx="12" fill="#241619" opacity=".09"/>
 <circle cx="245" cy="232" r="42" fill="#C9827B" opacity=".55"/><circle cx="380" cy="232" r="42" fill="#C9827B" opacity=".36"/><circle cx="515" cy="232" r="42" fill="#C9827B" opacity=".55"/><circle cx="650" cy="232" r="42" fill="#C9827B" opacity=".36"/>
 <rect x="780" y="185" width="180" height="95" rx="20" fill="#241619" opacity=".88"/>
 <circle cx="245" cy="377" r="42" fill="#A6B6A6" opacity=".55"/><circle cx="380" cy="377" r="42" fill="#A6B6A6" opacity=".36"/><circle cx="515" cy="377" r="42" fill="#A6B6A6" opacity=".55"/><circle cx="650" cy="377" r="42" fill="#A6B6A6" opacity=".36"/>
 <rect x="780" y="330" width="180" height="95" rx="20" fill="#241619" opacity=".88"/>
 <circle cx="245" cy="522" r="42" fill="#D0AA80" opacity=".55"/><circle cx="380" cy="522" r="42" fill="#D0AA80" opacity=".36"/><circle cx="515" cy="522" r="42" fill="#D0AA80" opacity=".55"/><circle cx="650" cy="522" r="42" fill="#D0AA80" opacity=".36"/>
 <rect x="780" y="475" width="180" height="95" rx="20" fill="#241619" opacity=".88"/>
 <text x="96" y="672" font-family="Arial" font-size="24" letter-spacing="6" fill="#9E6D63">OEM / ODM PRODUCTION FLOW</text>
 <text x="96" y="728" font-family="Georgia" font-size="44" fill="#241619">Filling · Packaging · Quality Control</text>
</svg>