<svg xmlns="http://www.w3.org/2000/svg" width="1600" height="1100" viewBox="0 0 1600 1100" fill="none">
  <defs>
    <linearGradient id="bg" x1="0" y1="0" x2="1" y2="1"><stop stop-color="#FFF7F3"/><stop offset="0.5" stop-color="#F8DAD1"/><stop offset="1" stop-color="#F2E9E3"/></linearGradient>
    <linearGradient id="glass" x1="0" y1="0" x2="1" y2="1"><stop stop-color="#fff" stop-opacity=".96"/><stop offset="1" stop-color="#F0CFC5" stop-opacity=".88"/></linearGradient>
  </defs>
  <rect width="1600" height="1100" rx="72" fill="url(#bg)"/>
  <circle cx="1180" cy="260" r="230" fill="#241619" opacity=".06"/>
  <circle cx="328" cy="840" r="260" fill="#C9827B" opacity=".12"/>
  <path d="M185 210 C338 110 450 117 568 210" stroke="#C9827B" opacity=".35" stroke-width="5"/>
  <rect x="705" y="220" width="250" height="112" rx="36" fill="#241619"/>
  <rect x="735" y="323" width="190" height="455" rx="42" fill="url(#glass)" stroke="#E5C5BA" stroke-width="9"/>
  <rect x="765" y="425" width="130" height="210" rx="65" fill="#C9827B" opacity=".35"/>
  <text x="830" y="544" text-anchor="middle" font-family="Georgia" font-size="42" letter-spacing="5" fill="#241619">VELORIA</text>
  <text x="830" y="594" text-anchor="middle" font-family="Arial" font-size="18" letter-spacing="5" fill="#8C625B">EDP</text>
  <rect x="980" y="385" width="230" height="350" rx="40" fill="#241619"/>
  <rect x="1012" y="425" width="166" height="270" rx="28" fill="#C9827B" opacity=".58"/>
  <text x="1095" y="550" text-anchor="middle" font-family="Georgia" font-size="32" letter-spacing="5" fill="#FFF7F3">GIFT</text>
  <rect x="475" y="458" width="135" height="305" rx="52" fill="url(#glass)" stroke="#E5C5BA" stroke-width="8"/>
  <rect x="501" y="548" width="84" height="146" rx="42" fill="#B65F6B"/>
  <text x="543" y="512" text-anchor="middle" font-family="Arial" font-size="15" letter-spacing="3" fill="#241619">LIP</text>
  <rect x="1190" y="557" width="190" height="182" rx="70" fill="url(#glass)" stroke="#E5C5BA" stroke-width="8"/>
  <rect x="1220" y="504" width="130" height="74" rx="37" fill="#241619"/>
  <text x="1285" y="652" text-anchor="middle" font-family="Arial" font-size="19" letter-spacing="4" fill="#241619">SKIN</text>
  <ellipse cx="930" cy="800" rx="560" ry="78" fill="#241619" opacity=".10"/>
  <text x="145" y="175" font-family="Arial" font-size="20" letter-spacing="8" fill="#9E6D63">PRIVATE LABEL BEAUTY</text>
  <text x="145" y="270" font-family="Georgia" font-size="76" fill="#241619">Beauty Made</text>
  <text x="145" y="352" font-family="Georgia" font-size="76" fill="#241619">For Your Brand</text>
  <text x="150" y="425" font-family="Arial" font-size="28" fill="#6E5550">Perfume · Makeup · Skincare · Gift Sets</text>
</svg>