<svg xmlns="http://www.w3.org/2000/svg" width="1200" height="900" viewBox="0 0 1200 900" fill="none">
      <defs>
        <linearGradient id="bg" x1="0" y1="0" x2="1" y2="1"><stop stop-color="#FFF7F3"/><stop offset="1" stop-color="#F5E2DA"/></linearGradient>
        <linearGradient id="glass" x1="0" y1="0" x2="1" y2="1"><stop stop-color="#FFFFFF" stop-opacity="0.93"/><stop offset="1" stop-color="#F4DED7" stop-opacity="0.88"/></linearGradient>
      </defs>
      <rect width="1200" height="900" rx="54" fill="url(#bg)"/>
      <circle cx="246" cy="208" r="138" fill="#C9827B" opacity="0.12"/>
      <circle cx="945" cy="695" r="180" fill="#241619" opacity="0.06"/>
      <path d="M140 710 C240 646 330 646 430 710" stroke="#C9827B" stroke-width="4" opacity="0.32"/>
      
        <rect x="478" y="168" width="244" height="92" rx="28" fill="#241619" opacity="0.95"/>
        <rect x="510" y="250" width="180" height="360" rx="32" fill="url(#glass)" stroke="#E5C5BA" stroke-width="8"/>
        <rect x="556" y="296" width="88" height="182" rx="44" fill="#C9827B" opacity="0.28"/>
        <text x="600" y="403" text-anchor="middle" font-family="Georgia" font-size="36" letter-spacing="4" fill="#241619">VELORIA</text>
        <text x="600" y="445" text-anchor="middle" font-family="Arial" font-size="17" letter-spacing="4" fill="#8C625B">EDP</text>
        <rect x="537" y="610" width="126" height="36" rx="18" fill="#241619" opacity="0.16"/>
        
      <text x="98" y="118" font-family="Arial, Helvetica, sans-serif" font-size="18" letter-spacing="6" fill="#9E6D63">PRIVATE LABEL BEAUTY</text>
      <text x="98" y="178" font-family="Georgia, 'Times New Roman', serif" font-size="54" fill="#241619">Veloria Bloom EDP</text>
      <text x="100" y="226" font-family="Arial, Helvetica, sans-serif" font-size="24" fill="#7E5E58">Floral fruity perfume</text>
      <rect x="98" y="268" width="240" height="54" rx="27" fill="#241619"/>
      <text x="218" y="303" text-anchor="middle" font-family="Arial" font-size="18" fill="#FFF7F3">Custom Available</text>
    </svg>