<svg xmlns="http://www.w3.org/2000/svg" width="1200" height="900" viewBox="0 0 1200 900" fill="none">
      <defs>
        <linearGradient id="bg" x1="0" y1="0" x2="1" y2="1"><stop stop-color="#FFF3F2"/><stop offset="1" stop-color="#F5E2DA"/></linearGradient>
        <linearGradient id="glass" x1="0" y1="0" x2="1" y2="1"><stop stop-color="#FFFFFF" stop-opacity="0.93"/><stop offset="1" stop-color="#F4DED7" stop-opacity="0.88"/></linearGradient>
      </defs>
      <rect width="1200" height="900" rx="54" fill="url(#bg)"/>
      <circle cx="246" cy="208" r="138" fill="#B65F6B" opacity="0.12"/>
      <circle cx="945" cy="695" r="180" fill="#241619" opacity="0.06"/>
      <path d="M140 710 C240 646 330 646 430 710" stroke="#B65F6B" stroke-width="4" opacity="0.32"/>
      
        <rect x="510" y="190" width="180" height="72" rx="24" fill="#241619"/>
        <rect x="545" y="254" width="110" height="362" rx="48" fill="url(#glass)" stroke="#E5C5BA" stroke-width="7"/>
        <rect x="567" y="336" width="66" height="188" rx="33" fill="#B65F6B"/>
        <text x="600" y="301" text-anchor="middle" font-family="Arial" font-size="17" letter-spacing="3" fill="#241619">VELORIA</text>
        <rect x="490" y="614" width="220" height="36" rx="18" fill="#241619" opacity="0.14"/>
        
      <text x="98" y="118" font-family="Arial, Helvetica, sans-serif" font-size="18" letter-spacing="6" fill="#9E6D63">PRIVATE LABEL BEAUTY</text>
      <text x="98" y="178" font-family="Georgia, 'Times New Roman', serif" font-size="54" fill="#241619">Rose Lip Glaze</text>
      <text x="100" y="226" font-family="Arial, Helvetica, sans-serif" font-size="24" fill="#7E5E58">Private label lip gloss</text>
      <rect x="98" y="268" width="240" height="54" rx="27" fill="#241619"/>
      <text x="218" y="303" text-anchor="middle" font-family="Arial" font-size="18" fill="#FFF7F3">Custom Available</text>
    </svg>