<svg xmlns="http://www.w3.org/2000/svg" width="1200" height="900" viewBox="0 0 1200 900" fill="none">
      <defs>
        <linearGradient id="bg" x1="0" y1="0" x2="1" y2="1"><stop stop-color="#F9EDE5"/><stop offset="1" stop-color="#F5E2DA"/></linearGradient>
        <linearGradient id="glass" x1="0" y1="0" x2="1" y2="1"><stop stop-color="#FFFFFF" stop-opacity="0.93"/><stop offset="1" stop-color="#F4DED7" stop-opacity="0.88"/></linearGradient>
      </defs>
      <rect width="1200" height="900" rx="54" fill="url(#bg)"/>
      <circle cx="246" cy="208" r="138" fill="#D0AA80" opacity="0.12"/>
      <circle cx="945" cy="695" r="180" fill="#241619" opacity="0.06"/>
      <path d="M140 710 C240 646 330 646 430 710" stroke="#D0AA80" stroke-width="4" opacity="0.32"/>
      
        <rect x="362" y="352" width="218" height="220" rx="42" fill="url(#glass)" stroke="#E5C5BA" stroke-width="7"/>
        <rect x="397" y="288" width="148" height="78" rx="28" fill="#241619"/>
        <text x="471" y="474" text-anchor="middle" font-family="Georgia" font-size="30" letter-spacing="4" fill="#241619">VELORIA</text>
        <rect x="618" y="288" width="220" height="280" rx="28" fill="#241619"/>
        <rect x="644" y="318" width="168" height="220" rx="20" fill="#D0AA80" opacity="0.55"/>
        <text x="728" y="430" text-anchor="middle" font-family="Georgia" font-size="30" letter-spacing="4" fill="#FFF7F3">GIFT</text>
        <ellipse cx="604" cy="594" rx="300" ry="50" fill="#241619" opacity="0.12"/>
        
      <text x="98" y="118" font-family="Arial, Helvetica, sans-serif" font-size="18" letter-spacing="6" fill="#9E6D63">PRIVATE LABEL BEAUTY</text>
      <text x="98" y="178" font-family="Georgia, 'Times New Roman', serif" font-size="54" fill="#241619">Private Label Sample Kit</text>
      <text x="100" y="226" font-family="Arial, Helvetica, sans-serif" font-size="24" fill="#7E5E58">For new beauty brands</text>
      <rect x="98" y="268" width="240" height="54" rx="27" fill="#241619"/>
      <text x="218" y="303" text-anchor="middle" font-family="Arial" font-size="18" fill="#FFF7F3">Custom Available</text>
    </svg>