<svg xmlns="http://www.w3.org/2000/svg" viewBox="0 0 1200 900" role="img" aria-label="TopPerfume private label makeup product concept">
  <defs>
    <linearGradient id="bg" x1="0" x2="1" y1="0" y2="1"><stop offset="0" stop-color="#fbf7f3"/><stop offset="1" stop-color="#efd8d5"/></linearGradient>
    <linearGradient id="gold" x1="0" x2="1"><stop offset="0" stop-color="#c7a45a"/><stop offset="0.5" stop-color="#fff1bd"/><stop offset="1" stop-color="#9c7435"/></linearGradient>
    <linearGradient id="roseGold" x1="0" x2="1"><stop offset="0" stop-color="#b98673"/><stop offset="0.5" stop-color="#f8d7ca"/><stop offset="1" stop-color="#8f5c4c"/></linearGradient>
    <linearGradient id="silver" x1="0" x2="1"><stop offset="0" stop-color="#d9d9d9"/><stop offset="0.45" stop-color="#ffffff"/><stop offset="1" stop-color="#8e8e8e"/></linearGradient>
    <filter id="shadow" x="-30%" y="-30%" width="160%" height="160%"><feDropShadow dx="0" dy="22" stdDeviation="22" flood-color="#312322" flood-opacity="0.18"/></filter>
  </defs>
  <rect width="1200" height="900" fill="url(#bg)"/>
  <circle cx="1000" cy="170" r="210" fill="#ffffff" opacity="0.33"/>
  <circle cx="120" cy="760" r="260" fill="#ffffff" opacity="0.22"/>
  <g filter="url(#shadow)"><rect x="140" y="180" width="82" height="250" rx="8" fill="#152039"/><rect x="148" y="188" width="66" height="45" fill="url(#gold)" opacity="0.9"/><text x="181" y="275" font-family="Arial" font-size="22" fill="#f6e2a6" text-anchor="middle" font-weight="700">PURE</text><text x="181" y="305" font-family="Arial" font-size="22" fill="#f6e2a6" text-anchor="middle" font-weight="700">COLOR</text><text x="181" y="360" font-family="Arial" font-size="14" fill="#fff" text-anchor="middle">LIPSTICK</text></g>
<g filter="url(#shadow)"><rect x="260" y="180" width="82" height="250" rx="8" fill="#152039"/><rect x="268" y="188" width="66" height="45" fill="url(#gold)" opacity="0.9"/><text x="301" y="275" font-family="Arial" font-size="22" fill="#f6e2a6" text-anchor="middle" font-weight="700">PURE</text><text x="301" y="305" font-family="Arial" font-size="22" fill="#f6e2a6" text-anchor="middle" font-weight="700">COLOR</text><text x="301" y="360" font-family="Arial" font-size="14" fill="#fff" text-anchor="middle">LIPSTICK</text></g>
<g filter="url(#shadow)"><rect x="380" y="180" width="82" height="250" rx="8" fill="#152039"/><rect x="388" y="188" width="66" height="45" fill="url(#gold)" opacity="0.9"/><text x="421" y="275" font-family="Arial" font-size="22" fill="#f6e2a6" text-anchor="middle" font-weight="700">PURE</text><text x="421" y="305" font-family="Arial" font-size="22" fill="#f6e2a6" text-anchor="middle" font-weight="700">COLOR</text><text x="421" y="360" font-family="Arial" font-size="14" fill="#fff" text-anchor="middle">LIPSTICK</text></g>
<g filter="url(#shadow)"><rect x="500" y="180" width="82" height="250" rx="8" fill="#152039"/><rect x="508" y="188" width="66" height="45" fill="url(#gold)" opacity="0.9"/><text x="541" y="275" font-family="Arial" font-size="22" fill="#f6e2a6" text-anchor="middle" font-weight="700">PURE</text><text x="541" y="305" font-family="Arial" font-size="22" fill="#f6e2a6" text-anchor="middle" font-weight="700">COLOR</text><text x="541" y="360" font-family="Arial" font-size="14" fill="#fff" text-anchor="middle">LIPSTICK</text></g>
<g filter="url(#shadow)"><rect x="620" y="180" width="82" height="250" rx="8" fill="#152039"/><rect x="628" y="188" width="66" height="45" fill="url(#gold)" opacity="0.9"/><text x="661" y="275" font-family="Arial" font-size="22" fill="#f6e2a6" text-anchor="middle" font-weight="700">PURE</text><text x="661" y="305" font-family="Arial" font-size="22" fill="#f6e2a6" text-anchor="middle" font-weight="700">COLOR</text><text x="661" y="360" font-family="Arial" font-size="14" fill="#fff" text-anchor="middle">LIPSTICK</text></g>
<g filter="url(#shadow)"><rect x="740" y="180" width="82" height="250" rx="8" fill="#152039"/><rect x="748" y="188" width="66" height="45" fill="url(#gold)" opacity="0.9"/><text x="781" y="275" font-family="Arial" font-size="22" fill="#f6e2a6" text-anchor="middle" font-weight="700">PURE</text><text x="781" y="305" font-family="Arial" font-size="22" fill="#f6e2a6" text-anchor="middle" font-weight="700">COLOR</text><text x="781" y="360" font-family="Arial" font-size="14" fill="#fff" text-anchor="middle">LIPSTICK</text></g>
<g filter="url(#shadow)"><rect x="860" y="180" width="82" height="250" rx="8" fill="#152039"/><rect x="868" y="188" width="66" height="45" fill="url(#gold)" opacity="0.9"/><text x="901" y="275" font-family="Arial" font-size="22" fill="#f6e2a6" text-anchor="middle" font-weight="700">PURE</text><text x="901" y="305" font-family="Arial" font-size="22" fill="#f6e2a6" text-anchor="middle" font-weight="700">COLOR</text><text x="901" y="360" font-family="Arial" font-size="14" fill="#fff" text-anchor="middle">LIPSTICK</text></g>
<g filter="url(#shadow)"><rect x="980" y="180" width="82" height="250" rx="8" fill="#152039"/><rect x="988" y="188" width="66" height="45" fill="url(#gold)" opacity="0.9"/><text x="1021" y="275" font-family="Arial" font-size="22" fill="#f6e2a6" text-anchor="middle" font-weight="700">PURE</text><text x="1021" y="305" font-family="Arial" font-size="22" fill="#f6e2a6" text-anchor="middle" font-weight="700">COLOR</text><text x="1021" y="360" font-family="Arial" font-size="14" fill="#fff" text-anchor="middle">LIPSTICK</text></g>
<g filter="url(#shadow)" transform="rotate(-11 165 590)"><rect x="115" y="480" width="92" height="250" rx="12" fill="url(#roseGold)"/><rect x="123" y="500" width="76" height="150" rx="8" fill="#f0d5c8" opacity="0.95"/><rect x="123" y="650" width="76" height="62" fill="#e7b4ad"/><text x="161" y="694" font-family="Arial" font-size="20" fill="#fff" text-anchor="middle" font-weight="700">01</text></g>
<g filter="url(#shadow)" transform="rotate(-11 285 590)"><rect x="235" y="480" width="92" height="250" rx="12" fill="url(#roseGold)"/><rect x="243" y="500" width="76" height="150" rx="8" fill="#f0d5c8" opacity="0.95"/><rect x="243" y="650" width="76" height="62" fill="#d9919b"/><text x="281" y="694" font-family="Arial" font-size="20" fill="#fff" text-anchor="middle" font-weight="700">02</text></g>
<g filter="url(#shadow)" transform="rotate(-11 405 590)"><rect x="355" y="480" width="92" height="250" rx="12" fill="url(#roseGold)"/><rect x="363" y="500" width="76" height="150" rx="8" fill="#f0d5c8" opacity="0.95"/><rect x="363" y="650" width="76" height="62" fill="#c36a74"/><text x="401" y="694" font-family="Arial" font-size="20" fill="#fff" text-anchor="middle" font-weight="700">03</text></g>
<g filter="url(#shadow)" transform="rotate(-11 525 590)"><rect x="475" y="480" width="92" height="250" rx="12" fill="url(#roseGold)"/><rect x="483" y="500" width="76" height="150" rx="8" fill="#f0d5c8" opacity="0.95"/><rect x="483" y="650" width="76" height="62" fill="#b15062"/><text x="521" y="694" font-family="Arial" font-size="20" fill="#fff" text-anchor="middle" font-weight="700">04</text></g>
<g filter="url(#shadow)" transform="rotate(-11 645 590)"><rect x="595" y="480" width="92" height="250" rx="12" fill="url(#roseGold)"/><rect x="603" y="500" width="76" height="150" rx="8" fill="#f0d5c8" opacity="0.95"/><rect x="603" y="650" width="76" height="62" fill="#9f3e52"/><text x="641" y="694" font-family="Arial" font-size="20" fill="#fff" text-anchor="middle" font-weight="700">05</text></g>
<g filter="url(#shadow)" transform="rotate(-11 765 590)"><rect x="715" y="480" width="92" height="250" rx="12" fill="url(#roseGold)"/><rect x="723" y="500" width="76" height="150" rx="8" fill="#f0d5c8" opacity="0.95"/><rect x="723" y="650" width="76" height="62" fill="#7f3348"/><text x="761" y="694" font-family="Arial" font-size="20" fill="#fff" text-anchor="middle" font-weight="700">06</text></g>
<g filter="url(#shadow)" transform="rotate(-11 885 590)"><rect x="835" y="480" width="92" height="250" rx="12" fill="url(#roseGold)"/><rect x="843" y="500" width="76" height="150" rx="8" fill="#f0d5c8" opacity="0.95"/><rect x="843" y="650" width="76" height="62" fill="#b4765c"/><text x="881" y="694" font-family="Arial" font-size="20" fill="#fff" text-anchor="middle" font-weight="700">07</text></g>
<g filter="url(#shadow)" transform="rotate(-11 1005 590)"><rect x="955" y="480" width="92" height="250" rx="12" fill="url(#roseGold)"/><rect x="963" y="500" width="76" height="150" rx="8" fill="#f0d5c8" opacity="0.95"/><rect x="963" y="650" width="76" height="62" fill="#9a5b43"/><text x="1001" y="694" font-family="Arial" font-size="20" fill="#fff" text-anchor="middle" font-weight="700">08</text></g>
<text x="600" y="90" font-family="Arial, Helvetica, sans-serif" font-size="28" font-weight="700" fill="#5c4546" text-anchor="middle">TOPPERFUME PRIVATE LABEL</text>
<text x="600" y="130" font-family="Arial, Helvetica, sans-serif" font-size="26" font-weight="500" fill="#8a6b64" text-anchor="middle">Pure Color Lipstick Shade Line · US$8 / pc</text>
</svg>