<svg xmlns="http://www.w3.org/2000/svg" viewBox="0 0 1200 900" role="img" aria-label="TopPerfume private label makeup product concept">
  <defs>
    <linearGradient id="bg" x1="0" x2="1" y1="0" y2="1"><stop offset="0" stop-color="#f8f4ef"/><stop offset="1" stop-color="#e7d6ce"/></linearGradient>
    <linearGradient id="gold" x1="0" x2="1"><stop offset="0" stop-color="#c7a45a"/><stop offset="0.5" stop-color="#fff1bd"/><stop offset="1" stop-color="#9c7435"/></linearGradient>
    <linearGradient id="roseGold" x1="0" x2="1"><stop offset="0" stop-color="#b98673"/><stop offset="0.5" stop-color="#f8d7ca"/><stop offset="1" stop-color="#8f5c4c"/></linearGradient>
    <linearGradient id="silver" x1="0" x2="1"><stop offset="0" stop-color="#d9d9d9"/><stop offset="0.45" stop-color="#ffffff"/><stop offset="1" stop-color="#8e8e8e"/></linearGradient>
    <filter id="shadow" x="-30%" y="-30%" width="160%" height="160%"><feDropShadow dx="0" dy="22" stdDeviation="22" flood-color="#312322" flood-opacity="0.18"/></filter>
  </defs>
  <rect width="1200" height="900" fill="url(#bg)"/>
  <circle cx="1000" cy="170" r="210" fill="#ffffff" opacity="0.33"/>
  <circle cx="120" cy="760" r="260" fill="#ffffff" opacity="0.22"/>
  <g filter="url(#shadow)"><rect x="135" y="210" width="82" height="210" rx="8" fill="#0b0b0e"/><rect x="135" y="290" width="82" height="130" fill="#d7b39e"/><path d="M147 305 C180 275,185 335,207 302" stroke="url(#gold)" stroke-width="8" fill="none" opacity="0.85"/><text x="176" y="454" font-family="Arial" font-size="18" fill="#6b5050" text-anchor="middle" font-weight="700">NUDE 1</text></g>
<g filter="url(#shadow)"><rect x="285" y="210" width="82" height="210" rx="8" fill="#0b0b0e"/><rect x="285" y="290" width="82" height="130" fill="#c79578"/><path d="M297 305 C330 275,335 335,357 302" stroke="url(#gold)" stroke-width="8" fill="none" opacity="0.85"/><text x="326" y="454" font-family="Arial" font-size="18" fill="#6b5050" text-anchor="middle" font-weight="700">NUDE 2</text></g>
<g filter="url(#shadow)"><rect x="435" y="210" width="82" height="210" rx="8" fill="#0b0b0e"/><rect x="435" y="290" width="82" height="130" fill="#a87661"/><path d="M447 305 C480 275,485 335,507 302" stroke="url(#gold)" stroke-width="8" fill="none" opacity="0.85"/><text x="476" y="454" font-family="Arial" font-size="18" fill="#6b5050" text-anchor="middle" font-weight="700">NUDE 3</text></g>
<g filter="url(#shadow)"><rect x="585" y="210" width="82" height="210" rx="8" fill="#0b0b0e"/><rect x="585" y="290" width="82" height="130" fill="#8c6556"/><path d="M597 305 C630 275,635 335,657 302" stroke="url(#gold)" stroke-width="8" fill="none" opacity="0.85"/><text x="626" y="454" font-family="Arial" font-size="18" fill="#6b5050" text-anchor="middle" font-weight="700">NUDE 4</text></g>
<g filter="url(#shadow)"><rect x="735" y="210" width="82" height="210" rx="8" fill="#0b0b0e"/><rect x="735" y="290" width="82" height="130" fill="#735046"/><path d="M747 305 C780 275,785 335,807 302" stroke="url(#gold)" stroke-width="8" fill="none" opacity="0.85"/><text x="776" y="454" font-family="Arial" font-size="18" fill="#6b5050" text-anchor="middle" font-weight="700">NUDE 5</text></g>
<g filter="url(#shadow)"><rect x="885" y="210" width="82" height="210" rx="8" fill="#0b0b0e"/><rect x="885" y="290" width="82" height="130" fill="#613d39"/><path d="M897 305 C930 275,935 335,957 302" stroke="url(#gold)" stroke-width="8" fill="none" opacity="0.85"/><text x="926" y="454" font-family="Arial" font-size="18" fill="#6b5050" text-anchor="middle" font-weight="700">NUDE 6</text></g>
<g filter="url(#shadow)"><rect x="135" y="480" width="82" height="210" rx="8" fill="#0b0b0e"/><rect x="135" y="560" width="82" height="130" fill="#9b604d"/><path d="M147 575 C180 545,185 605,207 572" stroke="url(#gold)" stroke-width="8" fill="none" opacity="0.85"/><text x="176" y="724" font-family="Arial" font-size="18" fill="#6b5050" text-anchor="middle" font-weight="700">NUDE 7</text></g>
<g filter="url(#shadow)"><rect x="285" y="480" width="82" height="210" rx="8" fill="#0b0b0e"/><rect x="285" y="560" width="82" height="130" fill="#7c4b42"/><path d="M297 575 C330 545,335 605,357 572" stroke="url(#gold)" stroke-width="8" fill="none" opacity="0.85"/><text x="326" y="724" font-family="Arial" font-size="18" fill="#6b5050" text-anchor="middle" font-weight="700">NUDE 8</text></g>
<g filter="url(#shadow)"><rect x="435" y="480" width="82" height="210" rx="8" fill="#0b0b0e"/><rect x="435" y="560" width="82" height="130" fill="#5c3937"/><path d="M447 575 C480 545,485 605,507 572" stroke="url(#gold)" stroke-width="8" fill="none" opacity="0.85"/><text x="476" y="724" font-family="Arial" font-size="18" fill="#6b5050" text-anchor="middle" font-weight="700">NUDE 9</text></g>
<g filter="url(#shadow)"><rect x="585" y="480" width="82" height="210" rx="8" fill="#0b0b0e"/><rect x="585" y="560" width="82" height="130" fill="#a9826f"/><path d="M597 575 C630 545,635 605,657 572" stroke="url(#gold)" stroke-width="8" fill="none" opacity="0.85"/><text x="626" y="724" font-family="Arial" font-size="18" fill="#6b5050" text-anchor="middle" font-weight="700">NUDE 10</text></g>
<g filter="url(#shadow)"><rect x="735" y="480" width="82" height="210" rx="8" fill="#0b0b0e"/><rect x="735" y="560" width="82" height="130" fill="#8e6c5b"/><path d="M747 575 C780 545,785 605,807 572" stroke="url(#gold)" stroke-width="8" fill="none" opacity="0.85"/><text x="776" y="724" font-family="Arial" font-size="18" fill="#6b5050" text-anchor="middle" font-weight="700">NUDE 11</text></g>
<g filter="url(#shadow)"><rect x="885" y="480" width="82" height="210" rx="8" fill="#0b0b0e"/><rect x="885" y="560" width="82" height="130" fill="#604333"/><path d="M897 575 C930 545,935 605,957 572" stroke="url(#gold)" stroke-width="8" fill="none" opacity="0.85"/><text x="926" y="724" font-family="Arial" font-size="18" fill="#6b5050" text-anchor="middle" font-weight="700">NUDE 12</text></g>
<text x="600" y="84" font-family="Arial, Helvetica, sans-serif" font-size="34" font-weight="800" fill="#322528" text-anchor="middle">SLIM NUDE LIQUID LIP COLOR</text>
<text x="600" y="128" font-family="Arial, Helvetica, sans-serif" font-size="24" font-weight="500" fill="#80635f" text-anchor="middle">12-shade range · private label · US$8 / pc</text>
</svg>