<svg xmlns="http://www.w3.org/2000/svg" viewBox="0 0 1200 900" role="img" aria-label="TopPerfume private label makeup product concept">
  <defs>
    <linearGradient id="bg" x1="0" x2="1" y1="0" y2="1"><stop offset="0" stop-color="#fff7fa"/><stop offset="1" stop-color="#efd4df"/></linearGradient>
    <linearGradient id="gold" x1="0" x2="1"><stop offset="0" stop-color="#c7a45a"/><stop offset="0.5" stop-color="#fff1bd"/><stop offset="1" stop-color="#9c7435"/></linearGradient>
    <linearGradient id="roseGold" x1="0" x2="1"><stop offset="0" stop-color="#b98673"/><stop offset="0.5" stop-color="#f8d7ca"/><stop offset="1" stop-color="#8f5c4c"/></linearGradient>
    <linearGradient id="silver" x1="0" x2="1"><stop offset="0" stop-color="#d9d9d9"/><stop offset="0.45" stop-color="#ffffff"/><stop offset="1" stop-color="#8e8e8e"/></linearGradient>
    <filter id="shadow" x="-30%" y="-30%" width="160%" height="160%"><feDropShadow dx="0" dy="22" stdDeviation="22" flood-color="#312322" flood-opacity="0.18"/></filter>
  </defs>
  <rect width="1200" height="900" fill="url(#bg)"/>
  <circle cx="1000" cy="170" r="210" fill="#ffffff" opacity="0.33"/>
  <circle cx="120" cy="760" r="260" fill="#ffffff" opacity="0.22"/>
  <g filter="url(#shadow)"><rect x="145" y="175" width="95" height="220" rx="8" fill="#d56b7d"/><rect x="159" y="191" width="67" height="160" rx="4" fill="#151014"/><text x="192" y="249" font-family="Arial" font-size="23" fill="#fff" text-anchor="middle" font-weight="800" transform="rotate(-90 192 249)">TOPPERFUME</text><text x="192" y="372" font-family="Arial" font-size="16" fill="#fff" text-anchor="middle">MATTE</text></g>
<g filter="url(#shadow)"><rect x="295" y="175" width="95" height="220" rx="8" fill="#c85568"/><rect x="309" y="191" width="67" height="160" rx="4" fill="#151014"/><text x="342" y="249" font-family="Arial" font-size="23" fill="#fff" text-anchor="middle" font-weight="800" transform="rotate(-90 342 249)">TOPPERFUME</text><text x="342" y="372" font-family="Arial" font-size="16" fill="#fff" text-anchor="middle">MATTE</text></g>
<g filter="url(#shadow)"><rect x="445" y="175" width="95" height="220" rx="8" fill="#b9425a"/><rect x="459" y="191" width="67" height="160" rx="4" fill="#151014"/><text x="492" y="249" font-family="Arial" font-size="23" fill="#fff" text-anchor="middle" font-weight="800" transform="rotate(-90 492 249)">TOPPERFUME</text><text x="492" y="372" font-family="Arial" font-size="16" fill="#fff" text-anchor="middle">MATTE</text></g>
<g filter="url(#shadow)"><rect x="595" y="175" width="95" height="220" rx="8" fill="#a73651"/><rect x="609" y="191" width="67" height="160" rx="4" fill="#151014"/><text x="642" y="249" font-family="Arial" font-size="23" fill="#fff" text-anchor="middle" font-weight="800" transform="rotate(-90 642 249)">TOPPERFUME</text><text x="642" y="372" font-family="Arial" font-size="16" fill="#fff" text-anchor="middle">MATTE</text></g>
<g filter="url(#shadow)"><rect x="745" y="175" width="95" height="220" rx="8" fill="#912d47"/><rect x="759" y="191" width="67" height="160" rx="4" fill="#151014"/><text x="792" y="249" font-family="Arial" font-size="23" fill="#fff" text-anchor="middle" font-weight="800" transform="rotate(-90 792 249)">TOPPERFUME</text><text x="792" y="372" font-family="Arial" font-size="16" fill="#fff" text-anchor="middle">MATTE</text></g>
<g filter="url(#shadow)"><rect x="895" y="175" width="95" height="220" rx="8" fill="#7d243f"/><rect x="909" y="191" width="67" height="160" rx="4" fill="#151014"/><text x="942" y="249" font-family="Arial" font-size="23" fill="#fff" text-anchor="middle" font-weight="800" transform="rotate(-90 942 249)">TOPPERFUME</text><text x="942" y="372" font-family="Arial" font-size="16" fill="#fff" text-anchor="middle">MATTE</text></g>
<g filter="url(#shadow)"><rect x="145" y="430" width="95" height="220" rx="8" fill="#e28d9a"/><rect x="159" y="446" width="67" height="160" rx="4" fill="#151014"/><text x="192" y="504" font-family="Arial" font-size="23" fill="#fff" text-anchor="middle" font-weight="800" transform="rotate(-90 192 504)">TOPPERFUME</text><text x="192" y="627" font-family="Arial" font-size="16" fill="#fff" text-anchor="middle">MATTE</text></g>
<g filter="url(#shadow)"><rect x="295" y="430" width="95" height="220" rx="8" fill="#d16d82"/><rect x="309" y="446" width="67" height="160" rx="4" fill="#151014"/><text x="342" y="504" font-family="Arial" font-size="23" fill="#fff" text-anchor="middle" font-weight="800" transform="rotate(-90 342 504)">TOPPERFUME</text><text x="342" y="627" font-family="Arial" font-size="16" fill="#fff" text-anchor="middle">MATTE</text></g>
<g filter="url(#shadow)"><rect x="445" y="430" width="95" height="220" rx="8" fill="#bf536e"/><rect x="459" y="446" width="67" height="160" rx="4" fill="#151014"/><text x="492" y="504" font-family="Arial" font-size="23" fill="#fff" text-anchor="middle" font-weight="800" transform="rotate(-90 492 504)">TOPPERFUME</text><text x="492" y="627" font-family="Arial" font-size="16" fill="#fff" text-anchor="middle">MATTE</text></g>
<g filter="url(#shadow)"><rect x="595" y="430" width="95" height="220" rx="8" fill="#aa405f"/><rect x="609" y="446" width="67" height="160" rx="4" fill="#151014"/><text x="642" y="504" font-family="Arial" font-size="23" fill="#fff" text-anchor="middle" font-weight="800" transform="rotate(-90 642 504)">TOPPERFUME</text><text x="642" y="627" font-family="Arial" font-size="16" fill="#fff" text-anchor="middle">MATTE</text></g>
<g filter="url(#shadow)"><rect x="745" y="430" width="95" height="220" rx="8" fill="#923550"/><rect x="759" y="446" width="67" height="160" rx="4" fill="#151014"/><text x="792" y="504" font-family="Arial" font-size="23" fill="#fff" text-anchor="middle" font-weight="800" transform="rotate(-90 792 504)">TOPPERFUME</text><text x="792" y="627" font-family="Arial" font-size="16" fill="#fff" text-anchor="middle">MATTE</text></g>
<g filter="url(#shadow)"><rect x="895" y="430" width="95" height="220" rx="8" fill="#7d2d47"/><rect x="909" y="446" width="67" height="160" rx="4" fill="#151014"/><text x="942" y="504" font-family="Arial" font-size="23" fill="#fff" text-anchor="middle" font-weight="800" transform="rotate(-90 942 504)">TOPPERFUME</text><text x="942" y="627" font-family="Arial" font-size="16" fill="#fff" text-anchor="middle">MATTE</text></g>
<text x="600" y="82" font-family="Arial, Helvetica, sans-serif" font-size="34" font-weight="800" fill="#332529" text-anchor="middle">ROSE MATTE LIPSTICK MULTI-PACK</text>
<text x="600" y="125" font-family="Arial, Helvetica, sans-serif" font-size="24" font-weight="500" fill="#806063" text-anchor="middle">Multi-shade carton collection · US$8 / pc</text>
</svg>