<svg xmlns="http://www.w3.org/2000/svg" viewBox="0 0 1200 900" role="img" aria-label="TopPerfume private label makeup product concept">
  <defs>
    <linearGradient id="bg" x1="0" x2="1" y1="0" y2="1"><stop offset="0" stop-color="#fffdf9"/><stop offset="1" stop-color="#e4d1c5"/></linearGradient>
    <linearGradient id="gold" x1="0" x2="1"><stop offset="0" stop-color="#c7a45a"/><stop offset="0.5" stop-color="#fff1bd"/><stop offset="1" stop-color="#9c7435"/></linearGradient>
    <linearGradient id="roseGold" x1="0" x2="1"><stop offset="0" stop-color="#b98673"/><stop offset="0.5" stop-color="#f8d7ca"/><stop offset="1" stop-color="#8f5c4c"/></linearGradient>
    <linearGradient id="silver" x1="0" x2="1"><stop offset="0" stop-color="#d9d9d9"/><stop offset="0.45" stop-color="#ffffff"/><stop offset="1" stop-color="#8e8e8e"/></linearGradient>
    <filter id="shadow" x="-30%" y="-30%" width="160%" height="160%"><feDropShadow dx="0" dy="22" stdDeviation="22" flood-color="#312322" flood-opacity="0.18"/></filter>
  </defs>
  <rect width="1200" height="900" fill="url(#bg)"/>
  <circle cx="1000" cy="170" r="210" fill="#ffffff" opacity="0.33"/>
  <circle cx="120" cy="760" r="260" fill="#ffffff" opacity="0.22"/>
  <g filter="url(#shadow)"><rect x="190" y="170" width="820" height="500" rx="28" fill="#fffdf9"/><text x="600" y="240" font-family="Arial" font-size="34" fill="#25201f" text-anchor="middle" font-weight="800">WARM NUDE PALETTE</text>
<rect x="300" y="285" width="120" height="72" rx="10" fill="#ead9c6"/><text x="360" y="333" font-family="Arial" font-size="18" fill="#fff" text-anchor="middle" opacity="0.8">MN 1</text>
<rect x="450" y="285" width="120" height="72" rx="10" fill="#cfaa8c"/><text x="510" y="333" font-family="Arial" font-size="18" fill="#fff" text-anchor="middle" opacity="0.8">MN 2</text>
<rect x="600" y="285" width="120" height="72" rx="10" fill="#f0b6a2"/><text x="660" y="333" font-family="Arial" font-size="18" fill="#fff" text-anchor="middle" opacity="0.8">MN 3</text>
<rect x="750" y="285" width="120" height="72" rx="10" fill="#b98769"/><text x="810" y="333" font-family="Arial" font-size="18" fill="#fff" text-anchor="middle" opacity="0.8">MN 4</text>
<rect x="300" y="385" width="120" height="72" rx="10" fill="#b38e6f"/><text x="360" y="433" font-family="Arial" font-size="18" fill="#fff" text-anchor="middle" opacity="0.8">MN 5</text>
<rect x="450" y="385" width="120" height="72" rx="10" fill="#765448"/><text x="510" y="433" font-family="Arial" font-size="18" fill="#fff" text-anchor="middle" opacity="0.8">MN 6</text>
<rect x="600" y="385" width="120" height="72" rx="10" fill="#a46f62"/><text x="660" y="433" font-family="Arial" font-size="18" fill="#fff" text-anchor="middle" opacity="0.8">MN 7</text>
<rect x="750" y="385" width="120" height="72" rx="10" fill="#8c5f4f"/><text x="810" y="433" font-family="Arial" font-size="18" fill="#fff" text-anchor="middle" opacity="0.8">MN 8</text>
<rect x="300" y="485" width="120" height="72" rx="10" fill="#8a4e51"/><text x="360" y="533" font-family="Arial" font-size="18" fill="#fff" text-anchor="middle" opacity="0.8">MN 9</text>
<rect x="450" y="485" width="120" height="72" rx="10" fill="#6d3c3e"/><text x="510" y="533" font-family="Arial" font-size="18" fill="#fff" text-anchor="middle" opacity="0.8">MN 10</text>
<rect x="600" y="485" width="120" height="72" rx="10" fill="#4c403c"/><text x="660" y="533" font-family="Arial" font-size="18" fill="#fff" text-anchor="middle" opacity="0.8">MN 11</text>
<rect x="750" y="485" width="120" height="72" rx="10" fill="#161617"/><text x="810" y="533" font-family="Arial" font-size="18" fill="#fff" text-anchor="middle" opacity="0.8">MN 12</text>
</g>
<path d="M230 730 C380 690, 480 760, 620 725 S860 690,980 735" fill="none" stroke="#9d7a64" stroke-width="35" opacity="0.35"/>
<text x="600" y="805" font-family="Arial, Helvetica, sans-serif" font-size="26" font-weight="600" fill="#6d524a" text-anchor="middle">12-color eyeshadow palette · US$8 / palette</text>
</svg>