<svg xmlns="http://www.w3.org/2000/svg" viewBox="0 0 1000 760" role="img" aria-label="Bunny Cap EDP private label perfume product"><rect width="1000" height="760" fill="url(#bg)"/><circle cx="820" cy="110" r="140" fill="#fff" opacity=".55"/><circle cx="170" cy="650" r="190" fill="#fff" opacity=".45"/><path d="M0 610 C200 530 370 680 560 600 C730 528 850 560 1000 500 V760 H0 Z" fill="#fff" opacity=".58"/>
      <defs>
        <linearGradient id="bg" x1="0" x2="1" y1="0" y2="1"><stop stop-color="#fff7e8"/><stop offset="1" stop-color="#ffffff"/></linearGradient>
        <linearGradient id="glass" x1="0" x2="1" y1="0" y2="1"><stop stop-color="#ffffff" stop-opacity=".72"/><stop offset="1" stop-color="#f5d0d6" stop-opacity=".42"/></linearGradient>
        <linearGradient id="liquid" x1="0" x2="1" y1="0" y2="1"><stop stop-color="#d5a331" stop-opacity=".95"/><stop offset="1" stop-color="#1d1d1d" stop-opacity=".72"/></linearGradient>
        <filter id="shadow" x="-30%" y="-30%" width="160%" height="160%"><feDropShadow dx="0" dy="24" stdDeviation="28" flood-color="#241619" flood-opacity=".18"/></filter>
      </defs><rect x="130" y="190" width="270" height="410" rx="22" fill="#fff6db" stroke="#000" stroke-opacity=".12" filter="url(#shadow)"/><text x="265.0" y="270" text-anchor="middle" font-family="Georgia,serif" font-size="38" letter-spacing="8" fill="#d5a331">TOP</text><text x="265.0" y="312" text-anchor="middle" font-family="Arial" font-size="16" letter-spacing="4" fill="#d5a331">JOLLY RABBIT</text><text x="265.0" y="545" text-anchor="middle" font-family="Arial" font-size="16" letter-spacing="2" fill="#d5a331">100ml</text><g filter="url(#shadow)"><rect x="575" y="330" width="210" height="240" rx="85" fill="url(#glass)" stroke="#fff" stroke-width="8"/><path d="M590 445 C635 408 715 408 780 445 V565 H590 Z" fill="url(#liquid)" opacity=".70"/><circle cx="680" cy="260" r="72" fill="#d5a331"/><ellipse cx="630" cy="170" rx="30" ry="88" fill="#d5a331" transform="rotate(-24 630 170)"/><ellipse cx="730" cy="170" rx="30" ry="88" fill="#d5a331" transform="rotate(24 730 170)"/><circle cx="655" cy="250" r="9" fill="#1d1d1d"/><circle cx="705" cy="250" r="9" fill="#1d1d1d"/><rect x="592" y="330" width="176" height="42" rx="20" fill="#d5a331"/><text x="680" y="359" text-anchor="middle" font-family="Georgia,serif" font-size="24" fill="#fff">TP</text></g><text x="500" y="710" text-anchor="middle" font-family="Arial" font-size="20" letter-spacing="4" fill="#7a5b55">PRIVATE LABEL · WHOLESALE · US$15 / pc</text></svg>