<svg xmlns="http://www.w3.org/2000/svg" viewBox="0 0 1000 760" role="img" aria-label="Silver Homme EDP private label perfume product"><rect width="1000" height="760" fill="url(#bg)"/><circle cx="820" cy="110" r="140" fill="#fff" opacity=".55"/><circle cx="170" cy="650" r="190" fill="#fff" opacity=".45"/><path d="M0 610 C200 530 370 680 560 600 C730 528 850 560 1000 500 V760 H0 Z" fill="#fff" opacity=".58"/>
      <defs>
        <linearGradient id="bg" x1="0" x2="1" y1="0" y2="1"><stop stop-color="#f5f5f3"/><stop offset="1" stop-color="#ffffff"/></linearGradient>
        <linearGradient id="glass" x1="0" x2="1" y1="0" y2="1"><stop stop-color="#ffffff" stop-opacity=".72"/><stop offset="1" stop-color="#cfd2d4" stop-opacity=".42"/></linearGradient>
        <linearGradient id="liquid" x1="0" x2="1" y1="0" y2="1"><stop stop-color="#151515" stop-opacity=".95"/><stop offset="1" stop-color="#d8b961" stop-opacity=".72"/></linearGradient>
        <filter id="shadow" x="-30%" y="-30%" width="160%" height="160%"><feDropShadow dx="0" dy="24" stdDeviation="28" flood-color="#241619" flood-opacity=".18"/></filter>
      </defs><linearGradient id="silver" x1="0" x2="1"><stop stop-color="#f9f9f9"/><stop offset=".5" stop-color="#bfc4c7"/><stop offset="1" stop-color="#f7f7f7"/></linearGradient><rect x="610" y="190" width="270" height="370" rx="22" fill="url(#silver)" stroke="#000" stroke-opacity=".12" filter="url(#shadow)"/><text x="745.0" y="270" text-anchor="middle" font-family="Georgia,serif" font-size="38" letter-spacing="8" fill="#151515">TOP</text><text x="745.0" y="312" text-anchor="middle" font-family="Arial" font-size="16" letter-spacing="4" fill="#151515">HOMME</text><text x="745.0" y="505" text-anchor="middle" font-family="Arial" font-size="16" letter-spacing="2" fill="#151515">100ml</text><g filter="url(#shadow)"><rect x="210" y="210" width="260" height="350" rx="28" fill="url(#glass)" stroke="#fff" stroke-width="8"/><rect x="222" y="410" width="236" height="138" rx="16" fill="url(#liquid)" opacity=".78"/><rect x="282.8" y="168" width="114.4" height="52" rx="8" fill="#222"/><rect x="303.6" y="148" width="72.80000000000001" height="24" rx="5" fill="#151515"/></g><rect x="256.8" y="357.0" width="166.4" height="82" rx="8" fill="#fff" opacity=".92"/><text x="340.0" y="392.0" text-anchor="middle" font-family="Georgia,serif" font-size="24" letter-spacing="4" fill="#201314">TP</text><text x="340.0" y="419.0" text-anchor="middle" font-family="Arial" font-size="13" letter-spacing="2" fill="#6a4d48">TOP PERFUME</text><rect x="280" y="330" width="120" height="150" fill="#1d1d1d" opacity=".85"/><text x="500" y="710" text-anchor="middle" font-family="Arial" font-size="20" letter-spacing="4" fill="#7a5b55">PRIVATE LABEL · WHOLESALE · US$15 / pc</text></svg>