<svg xmlns="http://www.w3.org/2000/svg" viewBox="0 0 1000 760" role="img" aria-label="Mint Discovery Gift Set private label perfume product"><rect width="1000" height="760" fill="url(#bg)"/><circle cx="820" cy="110" r="140" fill="#fff" opacity=".55"/><circle cx="170" cy="650" r="190" fill="#fff" opacity=".45"/><path d="M0 610 C200 530 370 680 560 600 C730 528 850 560 1000 500 V760 H0 Z" fill="#fff" opacity=".58"/>
      <defs>
        <linearGradient id="bg" x1="0" x2="1" y1="0" y2="1"><stop stop-color="#e2f0d5"/><stop offset="1" stop-color="#ffffff"/></linearGradient>
        <linearGradient id="glass" x1="0" x2="1" y1="0" y2="1"><stop stop-color="#ffffff" stop-opacity=".72"/><stop offset="1" stop-color="#7aa27a" stop-opacity=".42"/></linearGradient>
        <linearGradient id="liquid" x1="0" x2="1" y1="0" y2="1"><stop stop-color="#f4c7cf" stop-opacity=".95"/><stop offset="1" stop-color="#6b8f71" stop-opacity=".72"/></linearGradient>
        <filter id="shadow" x="-30%" y="-30%" width="160%" height="160%"><feDropShadow dx="0" dy="24" stdDeviation="28" flood-color="#241619" flood-opacity=".18"/></filter>
      </defs><rect x="145" y="145" width="710" height="460" rx="34" fill="#7aa27a" opacity=".95" stroke="#fff" stroke-width="10" filter="url(#shadow)"/><rect x="195" y="220" width="610" height="310" rx="24" fill="#dff0d1" stroke="#fff" stroke-width="6"/><text x="500" y="205" text-anchor="middle" font-family="Georgia,serif" font-size="44" letter-spacing="8" fill="#1b1918">TOP PERFUME</text><rect x="285" y="290" width="170" height="170" rx="22" fill="#f6cbd4" stroke="#fff" stroke-opacity=".12" filter="url(#shadow)"/><text x="370.0" y="370" text-anchor="middle" font-family="Georgia,serif" font-size="38" letter-spacing="8" fill="#f4c7cf">TOP</text><text x="370.0" y="412" text-anchor="middle" font-family="Arial" font-size="16" letter-spacing="4" fill="#f4c7cf">SCENT CARD</text><text x="370.0" y="405" text-anchor="middle" font-family="Arial" font-size="16" letter-spacing="2" fill="#f4c7cf">2 x 30ml + box</text><g filter="url(#shadow)"><rect x="545" y="295" width="95" height="155" rx="28" fill="url(#glass)" stroke="#fff" stroke-width="8"/><rect x="557" y="385" width="71" height="53" rx="16" fill="url(#liquid)" opacity=".78"/><rect x="571.6" y="253" width="41.8" height="52" rx="8" fill="#1a1a1a"/><rect x="579.2" y="233" width="26.6" height="24" rx="5" fill="#f4c7cf"/></g><rect x="562.1" y="360.1" width="60.800000000000004" height="82" rx="8" fill="#fff" opacity=".92"/><text x="592.5" y="395.1" text-anchor="middle" font-family="Georgia,serif" font-size="24" letter-spacing="4" fill="#201314">TP</text><text x="592.5" y="422.1" text-anchor="middle" font-family="Arial" font-size="13" letter-spacing="2" fill="#6a4d48">TOP PERFUME</text><g filter="url(#shadow)"><rect x="660" y="295" width="95" height="155" rx="28" fill="url(#glass)" stroke="#fff" stroke-width="8"/><rect x="672" y="385" width="71" height="53" rx="16" fill="url(#liquid)" opacity=".78"/><rect x="686.6" y="253" width="41.8" height="52" rx="8" fill="#1a1a1a"/><rect x="694.2" y="233" width="26.6" height="24" rx="5" fill="#f4c7cf"/></g><rect x="677.1" y="360.1" width="60.800000000000004" height="82" rx="8" fill="#fff" opacity=".92"/><text x="707.5" y="395.1" text-anchor="middle" font-family="Georgia,serif" font-size="24" letter-spacing="4" fill="#201314">TP</text><text x="707.5" y="422.1" text-anchor="middle" font-family="Arial" font-size="13" letter-spacing="2" fill="#6a4d48">TOP PERFUME</text><text x="500" y="710" text-anchor="middle" font-family="Arial" font-size="20" letter-spacing="4" fill="#7a5b55">PRIVATE LABEL · WHOLESALE · US$15 / pc</text></svg>