<svg xmlns="http://www.w3.org/2000/svg" viewBox="0 0 1000 760" role="img" aria-label="Classic Spray Collection private label perfume product"><rect width="1000" height="760" fill="url(#bg)"/><circle cx="820" cy="110" r="140" fill="#fff" opacity=".55"/><circle cx="170" cy="650" r="190" fill="#fff" opacity=".45"/><path d="M0 610 C200 530 370 680 560 600 C730 528 850 560 1000 500 V760 H0 Z" fill="#fff" opacity=".58"/>
      <defs>
        <linearGradient id="bg" x1="0" x2="1" y1="0" y2="1"><stop stop-color="#fff7f0"/><stop offset="1" stop-color="#ffffff"/></linearGradient>
        <linearGradient id="glass" x1="0" x2="1" y1="0" y2="1"><stop stop-color="#ffffff" stop-opacity=".72"/><stop offset="1" stop-color="#151517" stop-opacity=".42"/></linearGradient>
        <linearGradient id="liquid" x1="0" x2="1" y1="0" y2="1"><stop stop-color="#e9c46a" stop-opacity=".95"/><stop offset="1" stop-color="#f0a6b8" stop-opacity=".72"/></linearGradient>
        <filter id="shadow" x="-30%" y="-30%" width="160%" height="160%"><feDropShadow dx="0" dy="24" stdDeviation="28" flood-color="#241619" flood-opacity=".18"/></filter>
      </defs><rect x="80" y="210" width="120" height="320" rx="22" fill="#111" stroke="#000" stroke-opacity=".12" filter="url(#shadow)"/><text x="140.0" y="290" text-anchor="middle" font-family="Georgia,serif" font-size="38" letter-spacing="8" fill="#e9c46a">TOP</text><text x="140.0" y="332" text-anchor="middle" font-family="Arial" font-size="16" letter-spacing="4" fill="#e9c46a">EDP</text><text x="140.0" y="475" text-anchor="middle" font-family="Arial" font-size="16" letter-spacing="2" fill="#e9c46a">100ml</text><g filter="url(#shadow)"><rect x="225" y="250" width="88" height="240" rx="28" fill="url(#glass)" stroke="#fff" stroke-width="8"/><rect x="237" y="395" width="64" height="83" rx="16" fill="url(#liquid)" opacity=".78"/><rect x="249.64" y="208" width="38.72" height="52" rx="8" fill="#d9d9d9"/><rect x="256.68" y="188" width="24.64" height="24" rx="5" fill="#e9c46a"/></g><rect x="240.84" y="350.8" width="56.32" height="82" rx="8" fill="#fff" opacity=".92"/><text x="269.0" y="385.8" text-anchor="middle" font-family="Georgia,serif" font-size="24" letter-spacing="4" fill="#201314">TP</text><text x="269.0" y="412.8" text-anchor="middle" font-family="Arial" font-size="13" letter-spacing="2" fill="#6a4d48">TOP PERFUME</text><rect x="370" y="210" width="120" height="320" rx="22" fill="#f6e4c0" stroke="#000" stroke-opacity=".12" filter="url(#shadow)"/><text x="430.0" y="290" text-anchor="middle" font-family="Georgia,serif" font-size="38" letter-spacing="8" fill="#e9c46a">TOP</text><text x="430.0" y="332" text-anchor="middle" font-family="Arial" font-size="16" letter-spacing="4" fill="#e9c46a">EDP</text><text x="430.0" y="475" text-anchor="middle" font-family="Arial" font-size="16" letter-spacing="2" fill="#e9c46a">100ml</text><g filter="url(#shadow)"><rect x="515" y="250" width="88" height="240" rx="28" fill="url(#glass)" stroke="#fff" stroke-width="8"/><rect x="527" y="395" width="64" height="83" rx="16" fill="url(#liquid)" opacity=".78"/><rect x="539.64" y="208" width="38.72" height="52" rx="8" fill="#d9d9d9"/><rect x="546.68" y="188" width="24.64" height="24" rx="5" fill="#e9c46a"/></g><rect x="530.84" y="350.8" width="56.32" height="82" rx="8" fill="#fff" opacity=".92"/><text x="559.0" y="385.8" text-anchor="middle" font-family="Georgia,serif" font-size="24" letter-spacing="4" fill="#201314">TP</text><text x="559.0" y="412.8" text-anchor="middle" font-family="Arial" font-size="13" letter-spacing="2" fill="#6a4d48">TOP PERFUME</text><rect x="660" y="210" width="120" height="320" rx="22" fill="#f2c1cf" stroke="#000" stroke-opacity=".12" filter="url(#shadow)"/><text x="720.0" y="290" text-anchor="middle" font-family="Georgia,serif" font-size="38" letter-spacing="8" fill="#e9c46a">TOP</text><text x="720.0" y="332" text-anchor="middle" font-family="Arial" font-size="16" letter-spacing="4" fill="#e9c46a">EDP</text><text x="720.0" y="475" text-anchor="middle" font-family="Arial" font-size="16" letter-spacing="2" fill="#e9c46a">100ml</text><g filter="url(#shadow)"><rect x="805" y="250" width="88" height="240" rx="28" fill="url(#glass)" stroke="#fff" stroke-width="8"/><rect x="817" y="395" width="64" height="83" rx="16" fill="url(#liquid)" opacity=".78"/><rect x="829.64" y="208" width="38.72" height="52" rx="8" fill="#111"/><rect x="836.68" y="188" width="24.64" height="24" rx="5" fill="#e9c46a"/></g><rect x="820.84" y="350.8" width="56.32" height="82" rx="8" fill="#fff" opacity=".92"/><text x="849.0" y="385.8" text-anchor="middle" font-family="Georgia,serif" font-size="24" letter-spacing="4" fill="#201314">TP</text><text x="849.0" y="412.8" text-anchor="middle" font-family="Arial" font-size="13" letter-spacing="2" fill="#6a4d48">TOP PERFUME</text><text x="500" y="710" text-anchor="middle" font-family="Arial" font-size="20" letter-spacing="4" fill="#7a5b55">PRIVATE LABEL · WHOLESALE · US$15 / pc</text></svg>