<svg xmlns="http://www.w3.org/2000/svg" viewBox="0 0 1000 760" role="img" aria-label="Round Bloom EDP private label perfume product"><rect width="1000" height="760" fill="url(#bg)"/><circle cx="820" cy="110" r="140" fill="#fff" opacity=".55"/><circle cx="170" cy="650" r="190" fill="#fff" opacity=".45"/><path d="M0 610 C200 530 370 680 560 600 C730 528 850 560 1000 500 V760 H0 Z" fill="#fff" opacity=".58"/>
      <defs>
        <linearGradient id="bg" x1="0" x2="1" y1="0" y2="1"><stop stop-color="#f7edf0"/><stop offset="1" stop-color="#ffffff"/></linearGradient>
        <linearGradient id="glass" x1="0" x2="1" y1="0" y2="1"><stop stop-color="#ffffff" stop-opacity=".72"/><stop offset="1" stop-color="#f4c7cf" stop-opacity=".42"/></linearGradient>
        <linearGradient id="liquid" x1="0" x2="1" y1="0" y2="1"><stop stop-color="#c9a227" stop-opacity=".95"/><stop offset="1" stop-color="#141414" stop-opacity=".72"/></linearGradient>
        <filter id="shadow" x="-30%" y="-30%" width="160%" height="160%"><feDropShadow dx="0" dy="24" stdDeviation="28" flood-color="#241619" flood-opacity=".18"/></filter>
      </defs><rect x="600" y="205" width="270" height="350" rx="22" fill="#f6e6ec" stroke="#000" stroke-opacity=".12" filter="url(#shadow)"/><text x="735.0" y="285" text-anchor="middle" font-family="Georgia,serif" font-size="38" letter-spacing="8" fill="#c9a227">TOP</text><text x="735.0" y="327" text-anchor="middle" font-family="Arial" font-size="16" letter-spacing="4" fill="#c9a227">SOFT BOX</text><text x="735.0" y="500" text-anchor="middle" font-family="Arial" font-size="16" letter-spacing="2" fill="#c9a227">90ml</text><g filter="url(#shadow)"><circle cx="390" cy="400" r="145" fill="url(#glass)" stroke="#fff" stroke-width="9"/><path d="M255 430 C330 385 455 385 525 430 V505 C430 560 330 560 255 505 Z" fill="url(#liquid)" opacity=".70"/><rect x="345" y="220" width="90" height="60" rx="12" fill="#e7e0dc"/><rect x="360" y="188" width="60" height="44" rx="8" fill="#c9a227"/></g><rect x="305" y="360" width="170" height="86" rx="8" fill="#fff" opacity=".92"/><text x="390.0" y="395" text-anchor="middle" font-family="Georgia,serif" font-size="24" letter-spacing="4" fill="#201314">TP</text><text x="390.0" y="422" text-anchor="middle" font-family="Arial" font-size="13" letter-spacing="2" fill="#6a4d48">TOP PERFUME</text><text x="500" y="710" text-anchor="middle" font-family="Arial" font-size="20" letter-spacing="4" fill="#7a5b55">PRIVATE LABEL · WHOLESALE · US$15 / pc</text></svg>