<svg xmlns="http://www.w3.org/2000/svg" viewBox="0 0 1000 760" role="img" aria-label="Minimal Clear Cologne private label perfume product"><rect width="1000" height="760" fill="url(#bg)"/><circle cx="820" cy="110" r="140" fill="#fff" opacity=".55"/><circle cx="170" cy="650" r="190" fill="#fff" opacity=".45"/><path d="M0 610 C200 530 370 680 560 600 C730 528 850 560 1000 500 V760 H0 Z" fill="#fff" opacity=".58"/>
      <defs>
        <linearGradient id="bg" x1="0" x2="1" y1="0" y2="1"><stop stop-color="#f6f4ef"/><stop offset="1" stop-color="#ffffff"/></linearGradient>
        <linearGradient id="glass" x1="0" x2="1" y1="0" y2="1"><stop stop-color="#ffffff" stop-opacity=".72"/><stop offset="1" stop-color="#d6d2c7" stop-opacity=".42"/></linearGradient>
        <linearGradient id="liquid" x1="0" x2="1" y1="0" y2="1"><stop stop-color="#1f1f1f" stop-opacity=".95"/><stop offset="1" stop-color="#ffffff" stop-opacity=".72"/></linearGradient>
        <filter id="shadow" x="-30%" y="-30%" width="160%" height="160%"><feDropShadow dx="0" dy="24" stdDeviation="28" flood-color="#241619" flood-opacity=".18"/></filter>
      </defs><rect x="120" y="190" width="270" height="410" rx="22" fill="#f8f8f6" stroke="#000" stroke-opacity=".12" filter="url(#shadow)"/><text x="255.0" y="270" text-anchor="middle" font-family="Georgia,serif" font-size="38" letter-spacing="8" fill="#1f1f1f">TOP</text><text x="255.0" y="312" text-anchor="middle" font-family="Arial" font-size="16" letter-spacing="4" fill="#1f1f1f">MINIMAL</text><text x="255.0" y="545" text-anchor="middle" font-family="Arial" font-size="16" letter-spacing="2" fill="#1f1f1f">75ml</text><g filter="url(#shadow)"><rect x="505" y="210" width="220" height="360" rx="28" fill="url(#glass)" stroke="#fff" stroke-width="8"/><rect x="517" y="450" width="196" height="108" rx="16" fill="url(#liquid)" opacity=".78"/><rect x="566.6" y="168" width="96.8" height="52" rx="8" fill="#171717"/><rect x="584.2" y="148" width="61.60000000000001" height="24" rx="5" fill="#1f1f1f"/></g><rect x="544.6" y="361.2" width="140.8" height="82" rx="8" fill="#fff" opacity=".92"/><text x="615.0" y="396.2" text-anchor="middle" font-family="Georgia,serif" font-size="24" letter-spacing="4" fill="#201314">TP</text><text x="615.0" y="423.2" text-anchor="middle" font-family="Arial" font-size="13" letter-spacing="2" fill="#6a4d48">TOP PERFUME</text><rect x="535" y="100" width="160" height="80" rx="22" fill="#fff" stroke="#ded8cf" stroke-width="7" opacity=".8"/><text x="500" y="710" text-anchor="middle" font-family="Arial" font-size="20" letter-spacing="4" fill="#7a5b55">PRIVATE LABEL · WHOLESALE · US$15 / pc</text></svg>