<svg xmlns="http://www.w3.org/2000/svg" viewBox="0 0 1000 760" role="img" aria-label="Ribbon Luxe Duo EDP private label perfume product"><rect width="1000" height="760" fill="url(#bg)"/><circle cx="820" cy="110" r="140" fill="#fff" opacity=".55"/><circle cx="170" cy="650" r="190" fill="#fff" opacity=".45"/><path d="M0 610 C200 530 370 680 560 600 C730 528 850 560 1000 500 V760 H0 Z" fill="#fff" opacity=".58"/>
      <defs>
        <linearGradient id="bg" x1="0" x2="1" y1="0" y2="1"><stop stop-color="#f7efe7"/><stop offset="1" stop-color="#ffffff"/></linearGradient>
        <linearGradient id="glass" x1="0" x2="1" y1="0" y2="1"><stop stop-color="#ffffff" stop-opacity=".72"/><stop offset="1" stop-color="#231819" stop-opacity=".42"/></linearGradient>
        <linearGradient id="liquid" x1="0" x2="1" y1="0" y2="1"><stop stop-color="#d4ad61" stop-opacity=".95"/><stop offset="1" stop-color="#ba2d50" stop-opacity=".72"/></linearGradient>
        <filter id="shadow" x="-30%" y="-30%" width="160%" height="160%"><feDropShadow dx="0" dy="24" stdDeviation="28" flood-color="#241619" flood-opacity=".18"/></filter>
      </defs><rect x="88" y="190" width="250" height="410" rx="22" fill="#191718" stroke="#000" stroke-opacity=".12" filter="url(#shadow)"/><text x="213.0" y="270" text-anchor="middle" font-family="Georgia,serif" font-size="38" letter-spacing="8" fill="#d4ad61">TOP</text><text x="213.0" y="312" text-anchor="middle" font-family="Arial" font-size="16" letter-spacing="4" fill="#d4ad61">PRIVATE LABEL</text><text x="213.0" y="545" text-anchor="middle" font-family="Arial" font-size="16" letter-spacing="2" fill="#d4ad61">50ml / 100ml</text><g filter="url(#shadow)"><rect x="410" y="230" width="150" height="310" rx="28" fill="url(#glass)" stroke="#fff" stroke-width="8"/><rect x="422" y="410" width="126" height="118" rx="16" fill="url(#liquid)" opacity=".78"/><rect x="452.0" y="188" width="66.0" height="52" rx="8" fill="#111"/><rect x="464.0" y="168" width="42.00000000000001" height="24" rx="5" fill="#d4ad61"/></g><rect x="437.0" y="360.2" width="96.0" height="82" rx="8" fill="#fff" opacity=".92"/><text x="485.0" y="395.2" text-anchor="middle" font-family="Georgia,serif" font-size="24" letter-spacing="4" fill="#201314">TP</text><text x="485.0" y="422.2" text-anchor="middle" font-family="Arial" font-size="13" letter-spacing="2" fill="#6a4d48">TOP PERFUME</text><rect x="632" y="190" width="250" height="410" rx="22" fill="#fff" stroke="#000" stroke-opacity=".12" filter="url(#shadow)"/><text x="757.0" y="270" text-anchor="middle" font-family="Georgia,serif" font-size="38" letter-spacing="8" fill="#d4ad61">TOP</text><text x="757.0" y="312" text-anchor="middle" font-family="Arial" font-size="16" letter-spacing="4" fill="#d4ad61">GIFT BOX</text><text x="757.0" y="545" text-anchor="middle" font-family="Arial" font-size="16" letter-spacing="2" fill="#d4ad61">50ml / 100ml</text><g filter="url(#shadow)"><rect x="760" y="245" width="145" height="300" rx="28" fill="url(#glass)" stroke="#fff" stroke-width="8"/><rect x="772" y="430" width="121" height="103" rx="16" fill="url(#liquid)" opacity=".78"/><rect x="800.6" y="203" width="63.8" height="52" rx="8" fill="#151515"/><rect x="812.2" y="183" width="40.6" height="24" rx="5" fill="#d4ad61"/></g><rect x="786.1" y="371.0" width="92.8" height="82" rx="8" fill="#fff" opacity=".92"/><text x="832.5" y="406.0" text-anchor="middle" font-family="Georgia,serif" font-size="24" letter-spacing="4" fill="#201314">TP</text><text x="832.5" y="433.0" text-anchor="middle" font-family="Arial" font-size="13" letter-spacing="2" fill="#6a4d48">TOP PERFUME</text><path d="M436 478 C465 438 525 440 548 482" stroke="#d4ad61" stroke-width="10" fill="none" opacity=".8"/><path d="M784 480 C814 440 868 440 890 482" stroke="#d4ad61" stroke-width="10" fill="none" opacity=".8"/><text x="500" y="710" text-anchor="middle" font-family="Arial" font-size="20" letter-spacing="4" fill="#7a5b55">PRIVATE LABEL · WHOLESALE · US$15 / pc</text></svg>