<svg xmlns="http://www.w3.org/2000/svg" viewBox="0 0 1000 760" role="img" aria-label="Dark Mini Discovery Set private label perfume product"><rect width="1000" height="760" fill="url(#bg)"/><circle cx="820" cy="110" r="140" fill="#fff" opacity=".55"/><circle cx="170" cy="650" r="190" fill="#fff" opacity=".45"/><path d="M0 610 C200 530 370 680 560 600 C730 528 850 560 1000 500 V760 H0 Z" fill="#fff" opacity=".58"/>
      <defs>
        <linearGradient id="bg" x1="0" x2="1" y1="0" y2="1"><stop stop-color="#111923"/><stop offset="1" stop-color="#ffffff"/></linearGradient>
        <linearGradient id="glass" x1="0" x2="1" y1="0" y2="1"><stop stop-color="#ffffff" stop-opacity=".72"/><stop offset="1" stop-color="#263042" stop-opacity=".42"/></linearGradient>
        <linearGradient id="liquid" x1="0" x2="1" y1="0" y2="1"><stop stop-color="#d5b65c" stop-opacity=".95"/><stop offset="1" stop-color="#6f8fb8" stop-opacity=".72"/></linearGradient>
        <filter id="shadow" x="-30%" y="-30%" width="160%" height="160%"><feDropShadow dx="0" dy="24" stdDeviation="28" flood-color="#241619" flood-opacity=".18"/></filter>
      </defs><rect x="115" y="150" width="770" height="470" rx="32" fill="#172131" filter="url(#shadow)"/><rect x="165" y="230" width="670" height="300" rx="18" fill="#233046" stroke="#48566a"/><text x="500" y="210" text-anchor="middle" font-family="Georgia,serif" font-size="46" letter-spacing="12" fill="#d5b65c">TOP DISCOVERY</text><g><rect x="230" y="295" width="95" height="180" rx="26" fill="#0b0f13" stroke="#586273"/><rect x="240" y="380" width="75" height="85" rx="18" fill="#151515" opacity=".75"/><text x="277" y="352" text-anchor="middle" font-family="Arial" font-size="12" letter-spacing="2" fill="#fff">TP</text></g><g><rect x="370" y="295" width="95" height="180" rx="26" fill="#0b0f13" stroke="#586273"/><rect x="380" y="380" width="75" height="85" rx="18" fill="#0b315d" opacity=".75"/><text x="417" y="352" text-anchor="middle" font-family="Arial" font-size="12" letter-spacing="2" fill="#fff">TP</text></g><g><rect x="510" y="295" width="95" height="180" rx="26" fill="#0b0f13" stroke="#586273"/><rect x="520" y="380" width="75" height="85" rx="18" fill="#7b6b59" opacity=".75"/><text x="557" y="352" text-anchor="middle" font-family="Arial" font-size="12" letter-spacing="2" fill="#fff">TP</text></g><g><rect x="650" y="295" width="95" height="180" rx="26" fill="#0b0f13" stroke="#586273"/><rect x="660" y="380" width="75" height="85" rx="18" fill="#526b89" opacity=".75"/><text x="697" y="352" text-anchor="middle" font-family="Arial" font-size="12" letter-spacing="2" fill="#fff">TP</text></g><text x="500" y="710" text-anchor="middle" font-family="Arial" font-size="20" letter-spacing="4" fill="#7a5b55">PRIVATE LABEL · WHOLESALE · US$15 / pc</text></svg>