<svg xmlns="http://www.w3.org/2000/svg" viewBox="0 0 1000 760" role="img" aria-label="Noir Cylinder Men EDP private label perfume product"><rect width="1000" height="760" fill="url(#bg)"/><circle cx="820" cy="110" r="140" fill="#fff" opacity=".55"/><circle cx="170" cy="650" r="190" fill="#fff" opacity=".45"/><path d="M0 610 C200 530 370 680 560 600 C730 528 850 560 1000 500 V760 H0 Z" fill="#fff" opacity=".58"/>
      <defs>
        <linearGradient id="bg" x1="0" x2="1" y1="0" y2="1"><stop stop-color="#f2f0ec"/><stop offset="1" stop-color="#ffffff"/></linearGradient>
        <linearGradient id="glass" x1="0" x2="1" y1="0" y2="1"><stop stop-color="#ffffff" stop-opacity=".72"/><stop offset="1" stop-color="#0e1115" stop-opacity=".42"/></linearGradient>
        <linearGradient id="liquid" x1="0" x2="1" y1="0" y2="1"><stop stop-color="#a2a7ad" stop-opacity=".95"/><stop offset="1" stop-color="#d4ad61" stop-opacity=".72"/></linearGradient>
        <filter id="shadow" x="-30%" y="-30%" width="160%" height="160%"><feDropShadow dx="0" dy="24" stdDeviation="28" flood-color="#241619" flood-opacity=".18"/></filter>
      </defs><rect x="610" y="170" width="250" height="430" rx="22" fill="#121316" stroke="#000" stroke-opacity=".12" filter="url(#shadow)"/><text x="735.0" y="250" text-anchor="middle" font-family="Georgia,serif" font-size="38" letter-spacing="8" fill="#a2a7ad">TOP</text><text x="735.0" y="292" text-anchor="middle" font-family="Arial" font-size="16" letter-spacing="4" fill="#a2a7ad">MEN EDP</text><text x="735.0" y="545" text-anchor="middle" font-family="Arial" font-size="16" letter-spacing="2" fill="#a2a7ad">100ml</text><g filter="url(#shadow)"><rect x="245" y="190" width="230" height="390" rx="84" fill="#0d1115"/><rect x="265" y="210" width="190" height="350" rx="70" fill="url(#glass)" opacity=".12"/><rect x="260" y="118" width="200" height="92" rx="30" fill="#101012"/><text x="360" y="405" text-anchor="middle" font-family="Georgia,serif" font-size="38" fill="#efefef">NOIR</text><text x="360" y="438" text-anchor="middle" font-family="Arial" font-size="18" letter-spacing="4" fill="#b9b9b9">TOP PERFUME</text></g><text x="500" y="710" text-anchor="middle" font-family="Arial" font-size="20" letter-spacing="4" fill="#7a5b55">PRIVATE LABEL · WHOLESALE · US$15 / pc</text></svg>