<svg xmlns="http://www.w3.org/2000/svg" viewBox="0 0 1000 760" role="img" aria-label="Blue Homme Rectangular EDP private label perfume product"><rect width="1000" height="760" fill="url(#bg)"/><circle cx="820" cy="110" r="140" fill="#fff" opacity=".55"/><circle cx="170" cy="650" r="190" fill="#fff" opacity=".45"/><path d="M0 610 C200 530 370 680 560 600 C730 528 850 560 1000 500 V760 H0 Z" fill="#fff" opacity=".58"/>
      <defs>
        <linearGradient id="bg" x1="0" x2="1" y1="0" y2="1"><stop stop-color="#eff3ff"/><stop offset="1" stop-color="#ffffff"/></linearGradient>
        <linearGradient id="glass" x1="0" x2="1" y1="0" y2="1"><stop stop-color="#ffffff" stop-opacity=".72"/><stop offset="1" stop-color="#064fc4" stop-opacity=".42"/></linearGradient>
        <linearGradient id="liquid" x1="0" x2="1" y1="0" y2="1"><stop stop-color="#121a35" stop-opacity=".95"/><stop offset="1" stop-color="#c9d8ff" stop-opacity=".72"/></linearGradient>
        <filter id="shadow" x="-30%" y="-30%" width="160%" height="160%"><feDropShadow dx="0" dy="24" stdDeviation="28" flood-color="#241619" flood-opacity=".18"/></filter>
      </defs><rect x="95" y="215" width="300" height="300" rx="22" fill="#142653" stroke="#000" stroke-opacity=".12" filter="url(#shadow)"/><text x="245.0" y="295" text-anchor="middle" font-family="Georgia,serif" font-size="38" letter-spacing="8" fill="#121a35">TOP</text><text x="245.0" y="337" text-anchor="middle" font-family="Arial" font-size="16" letter-spacing="4" fill="#121a35">MEN LINE</text><text x="245.0" y="460" text-anchor="middle" font-family="Arial" font-size="16" letter-spacing="2" fill="#121a35">100ml</text><g filter="url(#shadow)"><rect x="510" y="235" width="330" height="260" rx="26" fill="url(#liquid)" stroke="#9fc3ff" stroke-width="7"/><rect x="620" y="180" width="110" height="70" rx="13" fill="#181818"/><rect x="640" y="155" width="70" height="42" rx="8" fill="#516070"/><text x="675" y="382" text-anchor="middle" font-family="Georgia,serif" font-size="54" letter-spacing="14" fill="#fff">TP</text><text x="675" y="425" text-anchor="middle" font-family="Arial" font-size="20" letter-spacing="4" fill="#dbe8ff">POUR HOMME</text></g><text x="500" y="710" text-anchor="middle" font-family="Arial" font-size="20" letter-spacing="4" fill="#7a5b55">PRIVATE LABEL · WHOLESALE · US$15 / pc</text></svg>