<svg xmlns="http://www.w3.org/2000/svg" viewBox="0 0 1200 980" role="img">
  <defs>
    <linearGradient id="bg" x1="0" y1="0" x2="1" y2="1"><stop offset="0" stop-color="#f7f9ff"/><stop offset="1" stop-color="#f4ddd5"/></linearGradient>
    <linearGradient id="glass" x1="0" y1="0" x2="1" y2="1"><stop offset="0" stop-color="#ffffff" stop-opacity=".72"/><stop offset="1" stop-color="#e8faf5" stop-opacity=".35"/></linearGradient>
    <filter id="shadow" x="-20%" y="-20%" width="140%" height="140%"><feDropShadow dx="0" dy="24" stdDeviation="22" flood-color="#2a171b" flood-opacity=".16"/></filter>
  </defs>
  <rect width="1200" height="980" fill="url(#bg)"/>
  <circle cx="1010" cy="130" r="250" fill="#fff" opacity=".45"/>
  <circle cx="145" cy="820" r="210" fill="#fff" opacity=".55"/>
  <rect x="88" y="780" width="1024" height="42" rx="21" fill="#fff" opacity=".55"/>
  
  <g filter="url(#shadow)">
    <rect x="220" y="430" width="760" height="280" rx="26" fill="#fff" stroke="#2e62cf" stroke-width="10"/>
    <path d="M240 520 H960" stroke="#2e62cf" stroke-width="3" opacity=".45"/>
    <text x="600" y="510" text-anchor="middle" font-family="Georgia, serif" font-size="44" fill="#202434">ACTIVE CELL RECONSTRUCTION</text>
    <text x="600" y="570" text-anchor="middle" font-family="Georgia, serif" font-size="56" fill="#204bae">Collagen Bubble Essence</text>
    <text x="340" y="642" font-family="Arial" font-size="35" fill="#163e8a" font-weight="700">7 Days</text>
    <text x="530" y="642" font-family="Arial" font-size="35" fill="#163e8a" font-weight="700">14 Days</text>
    <text x="720" y="642" font-family="Arial" font-size="35" fill="#163e8a" font-weight="700">21 Day</text>
    <text x="600" y="685" text-anchor="middle" font-family="Arial" font-size="22" fill="#5e6170">HYDRATING · ELASTICITY CARE · PRIVATE LABEL</text>
  </g>
  <g filter="url(#shadow)">
    <rect x="260" y="185" width="680" height="230" rx="22" fill="#fff" stroke="#2e62cf" stroke-width="9" transform="rotate(-8 600 300)"/>
    <g opacity=".92">
      <circle cx="390" cy="290" r="72" fill="none" stroke="#b5c0d4" stroke-width="3"/>
      <circle cx="505" cy="275" r="72" fill="none" stroke="#b5c0d4" stroke-width="3"/>
      <circle cx="620" cy="260" r="72" fill="none" stroke="#b5c0d4" stroke-width="3"/>
      <ellipse cx="386" cy="294" rx="32" ry="48" fill="#f4f1e9" stroke="#d8d3c9"/>
      <ellipse cx="429" cy="270" rx="23" ry="43" fill="#0b5edf" opacity=".88"/>
      <ellipse cx="500" cy="278" rx="32" ry="48" fill="#f4f1e9" stroke="#d8d3c9"/>
      <ellipse cx="546" cy="253" rx="23" ry="43" fill="#0b5edf" opacity=".88"/>
      <ellipse cx="615" cy="265" rx="32" ry="48" fill="#f4f1e9" stroke="#d8d3c9"/>
      <ellipse cx="664" cy="241" rx="23" ry="43" fill="#0b5edf" opacity=".88"/>
    </g>
    <text x="610" y="218" text-anchor="middle" font-family="Arial" font-size="24" fill="#202434" font-weight="700" transform="rotate(-8 600 300)">COLLAGEN BUBBLE</text>
  </g>

  <text x="600" y="910" text-anchor="middle" font-family="Arial, sans-serif" font-size="18" fill="#7f625b" letter-spacing="5">PRIVATE LABEL · OEM / ODM · WHOLESALE</text>
</svg>