<svg xmlns="http://www.w3.org/2000/svg" viewBox="0 0 1200 980" role="img">
  <defs>
    <linearGradient id="bg" x1="0" y1="0" x2="1" y2="1"><stop offset="0" stop-color="#f7f6ef"/><stop offset="1" stop-color="#f4ddd5"/></linearGradient>
    <linearGradient id="glass" x1="0" y1="0" x2="1" y2="1"><stop offset="0" stop-color="#ffffff" stop-opacity=".72"/><stop offset="1" stop-color="#e8faf5" stop-opacity=".35"/></linearGradient>
    <filter id="shadow" x="-20%" y="-20%" width="140%" height="140%"><feDropShadow dx="0" dy="24" stdDeviation="22" flood-color="#2a171b" flood-opacity=".16"/></filter>
  </defs>
  <rect width="1200" height="980" fill="url(#bg)"/>
  <circle cx="1010" cy="130" r="250" fill="#fff" opacity=".45"/>
  <circle cx="145" cy="820" r="210" fill="#fff" opacity=".55"/>
  <rect x="88" y="780" width="1024" height="42" rx="21" fill="#fff" opacity=".55"/>
  
  <g filter="url(#shadow)">
    <rect x="250" y="170" width="260" height="610" rx="24" fill="#eef7f0" stroke="#dbe6dc" stroke-width="4"/>
    <text x="380" y="380" text-anchor="middle" font-family="Arial" font-size="42" fill="#343333" font-weight="700" transform="rotate(-90 380 380)">PDRN GLOW CREAM+</text>
    <text x="380" y="590" text-anchor="middle" font-family="Arial" font-size="24" fill="#69706d" transform="rotate(-90 380 590)">20g · Barrier Care</text>
  </g>
  <g filter="url(#shadow)" transform="rotate(0 770 500)">
    <rect x="640" y="255" width="190" height="500" rx="95" fill="#1f1e1d"/>
    <rect x="650" y="395" width="170" height="280" rx="72" fill="#b89163" opacity=".86"/>
    <rect x="682" y="750" width="126" height="42" rx="18" fill="#d5b46d"/>
    <text x="735" y="440" text-anchor="middle" font-family="Arial" font-size="38" fill="#f1d6a3" font-weight="700" transform="rotate(-90 735 440)">TOPPERFUME</text>
    <text x="735" y="590" text-anchor="middle" font-family="Arial" font-size="30" fill="#ffffff" font-weight="700" transform="rotate(-90 735 590)">PDRN GLOW</text>
  </g>
  <text x="600" y="135" text-anchor="middle" font-family="Georgia, serif" font-size="60" fill="#2a171b">PDRN Glow Repair Cream</text>
  <text x="600" y="178" text-anchor="middle" font-family="Arial" font-size="22" fill="#7f625b" letter-spacing="5">PRIVATE LABEL · SKINCARE TUBE</text>

  <text x="600" y="910" text-anchor="middle" font-family="Arial, sans-serif" font-size="18" fill="#7f625b" letter-spacing="5">PRIVATE LABEL · OEM / ODM · WHOLESALE</text>
</svg>