<svg xmlns="http://www.w3.org/2000/svg" viewBox="0 0 1200 980" role="img">
  <defs>
    <linearGradient id="bg" x1="0" y1="0" x2="1" y2="1"><stop offset="0" stop-color="#faf2e8"/><stop offset="1" stop-color="#f4ddd5"/></linearGradient>
    <linearGradient id="glass" x1="0" y1="0" x2="1" y2="1"><stop offset="0" stop-color="#ffffff" stop-opacity=".72"/><stop offset="1" stop-color="#e8faf5" stop-opacity=".35"/></linearGradient>
    <filter id="shadow" x="-20%" y="-20%" width="140%" height="140%"><feDropShadow dx="0" dy="24" stdDeviation="22" flood-color="#2a171b" flood-opacity=".16"/></filter>
  </defs>
  <rect width="1200" height="980" fill="url(#bg)"/>
  <circle cx="1010" cy="130" r="250" fill="#fff" opacity=".45"/>
  <circle cx="145" cy="820" r="210" fill="#fff" opacity=".55"/>
  <rect x="88" y="780" width="1024" height="42" rx="21" fill="#fff" opacity=".55"/>
  
  <g filter="url(#shadow)" font-family="Arial">
    <rect x="85" y="270" width="145" height="420" rx="16" fill="#fff8ed" stroke="#d7cec4"/>
    <rect x="110" y="210" width="95" height="105" rx="18" fill="#f3f0e8"/>
    <text x="160" y="455" text-anchor="middle" font-size="58" fill="#1f7c59" font-weight="900" transform="rotate(-90 160 455)">DAILY 1988</text>
    <text x="160" y="640" text-anchor="middle" font-size="16" fill="#7f625b">CLEANSER</text>
    <rect x="285" y="185" width="165" height="510" rx="18" fill="#fff8ed" stroke="#d7cec4"/>
    <text x="370" y="455" text-anchor="middle" font-size="64" fill="#1f7c59" font-weight="900" transform="rotate(-90 370 455)">DAILY 1988</text>
    <text x="370" y="640" text-anchor="middle" font-size="16" fill="#7f625b">TONER</text>
    <rect x="510" y="310" width="175" height="370" rx="50" fill="#fff8ed" stroke="#d7cec4"/>
    <text x="598" y="500" text-anchor="middle" font-size="62" fill="#b04762" font-weight="900" transform="rotate(-90 598 500)">DAILY 1988</text>
    <text x="598" y="635" text-anchor="middle" font-size="16" fill="#7f625b">CREAM</text>
    <rect x="748" y="250" width="175" height="430" rx="24" fill="#fff8ed" stroke="#d7cec4"/>
    <rect x="773" y="195" width="125" height="82" rx="20" fill="#fff8ed"/>
    <text x="838" y="470" text-anchor="middle" font-size="62" fill="#b04762" font-weight="900" transform="rotate(-90 838 470)">DAILY 1988</text>
    <text x="838" y="636" text-anchor="middle" font-size="16" fill="#7f625b">SUN CREAM</text>
    <rect x="970" y="420" width="120" height="265" rx="34" fill="#fff8ed" stroke="#d7cec4"/>
    <text x="1030" y="555" text-anchor="middle" font-size="42" fill="#b04762" font-weight="900" transform="rotate(-90 1030 555)">1988</text>
  </g>
  <text x="600" y="135" text-anchor="middle" font-family="Georgia, serif" font-size="58" fill="#2a171b">Daily Skincare Routine</text>
  <text x="600" y="178" text-anchor="middle" font-family="Arial" font-size="22" fill="#7f625b" letter-spacing="5">CLEANSER · TONER · CREAM · SUN CARE</text>

  <text x="600" y="910" text-anchor="middle" font-family="Arial, sans-serif" font-size="18" fill="#7f625b" letter-spacing="5">PRIVATE LABEL · OEM / ODM · WHOLESALE</text>
</svg>