<svg xmlns="http://www.w3.org/2000/svg" viewBox="0 0 1200 980" role="img">
  <defs>
    <linearGradient id="bg" x1="0" y1="0" x2="1" y2="1"><stop offset="0" stop-color="#eff8ec"/><stop offset="1" stop-color="#f4ddd5"/></linearGradient>
    <linearGradient id="glass" x1="0" y1="0" x2="1" y2="1"><stop offset="0" stop-color="#ffffff" stop-opacity=".72"/><stop offset="1" stop-color="#e8faf5" stop-opacity=".35"/></linearGradient>
    <filter id="shadow" x="-20%" y="-20%" width="140%" height="140%"><feDropShadow dx="0" dy="24" stdDeviation="22" flood-color="#2a171b" flood-opacity=".16"/></filter>
  </defs>
  <rect width="1200" height="980" fill="url(#bg)"/>
  <circle cx="1010" cy="130" r="250" fill="#fff" opacity=".45"/>
  <circle cx="145" cy="820" r="210" fill="#fff" opacity=".55"/>
  <rect x="88" y="780" width="1024" height="42" rx="21" fill="#fff" opacity=".55"/>
  
  <g filter="url(#shadow)">
    <rect x="210" y="170" width="300" height="610" rx="26" fill="#77bd50"/>
    <text x="360" y="285" text-anchor="middle" font-family="Arial" font-size="44" fill="#fff" font-weight="800">MUNG BEAN</text>
    <text x="360" y="335" text-anchor="middle" font-family="Arial" font-size="27" fill="#fff" font-weight="700">PORE TIGHT-UP</text>
    <text x="360" y="373" text-anchor="middle" font-family="Arial" font-size="27" fill="#fff" font-weight="700">SERUM</text>
    <circle cx="360" cy="510" r="86" fill="none" stroke="#fff" stroke-width="5" opacity=".9"/>
    <text x="360" y="700" text-anchor="middle" font-family="Georgia, serif" font-size="40" fill="#fff">TOPPERFUME</text>
  </g>
  <g filter="url(#shadow)">
    <rect x="650" y="300" width="260" height="475" rx="64" fill="#f9fbfa"/>
    <rect x="690" y="210" width="180" height="120" rx="34" fill="#74b849" opacity=".9"/>
    <rect x="710" y="155" width="140" height="65" rx="24" fill="#4b9637" opacity=".86"/>
    <path d="M650 610 C698 590,750 633,800 605 C845 581,884 589,910 604 L910 722 C910 752,888 775,858 775 H702 C673 775,650 752,650 722 Z" fill="#d8ead2"/>
    <text x="780" y="445" text-anchor="middle" font-family="Arial" font-size="42" fill="#4b9637" font-weight="800">MUNG</text>
    <text x="780" y="495" text-anchor="middle" font-family="Arial" font-size="42" fill="#4b9637" font-weight="800">BEAN</text>
    <circle cx="780" cy="600" r="74" fill="none" stroke="#4b9637" stroke-width="5" opacity=".72"/>
    <text x="780" y="705" text-anchor="middle" font-family="Arial" font-size="22" fill="#6f6f6f">30ml · 1.01 fl.oz.</text>
  </g>

  <text x="600" y="910" text-anchor="middle" font-family="Arial, sans-serif" font-size="18" fill="#7f625b" letter-spacing="5">PRIVATE LABEL · OEM / ODM · WHOLESALE</text>
</svg>