<svg xmlns="http://www.w3.org/2000/svg" viewBox="0 0 1200 980" role="img">
  <defs>
    <linearGradient id="bg" x1="0" y1="0" x2="1" y2="1"><stop offset="0" stop-color="#f5f8f8"/><stop offset="1" stop-color="#f4ddd5"/></linearGradient>
    <linearGradient id="glass" x1="0" y1="0" x2="1" y2="1"><stop offset="0" stop-color="#ffffff" stop-opacity=".72"/><stop offset="1" stop-color="#e8faf5" stop-opacity=".35"/></linearGradient>
    <filter id="shadow" x="-20%" y="-20%" width="140%" height="140%"><feDropShadow dx="0" dy="24" stdDeviation="22" flood-color="#2a171b" flood-opacity=".16"/></filter>
  </defs>
  <rect width="1200" height="980" fill="url(#bg)"/>
  <circle cx="1010" cy="130" r="250" fill="#fff" opacity=".45"/>
  <circle cx="145" cy="820" r="210" fill="#fff" opacity=".55"/>
  <rect x="88" y="780" width="1024" height="42" rx="21" fill="#fff" opacity=".55"/>
  
  <g filter="url(#shadow)">
    <rect x="300" y="150" width="600" height="670" rx="28" fill="#f4f6f7" stroke="#d5dddf" stroke-width="4"/>
    <rect x="330" y="190" width="540" height="590" rx="20" fill="#f9fbfb"/>
    <rect x="350" y="230" width="8" height="490" fill="#e1e6e7"/>
    <rect x="390" y="245" width="70" height="70" rx="35" fill="#f9e6e8" stroke="#b15966" stroke-width="6"/>
    <path d="M425 260 V300 M405 280 H445" stroke="#b15966" stroke-width="10" stroke-linecap="round"/>
    <text x="590" y="340" text-anchor="middle" font-family="Arial" font-size="38" fill="#28383c" font-weight="700">COOLING HYDROGEL</text>
    <text x="590" y="392" text-anchor="middle" font-family="Arial" font-size="38" fill="#2a7280" font-weight="700">CARE PATCH</text>
    <text x="590" y="485" text-anchor="middle" font-family="Arial" font-size="24" fill="#4f5c5d">No alcohol · Gentle feel · Moisture care</text>
    <g fill="none" stroke="#9aacb0" stroke-width="4">
      <rect x="398" y="585" width="90" height="90" rx="18"/>
      <rect x="555" y="585" width="90" height="90" rx="18"/>
      <path d="M755 585 C710 640,725 680,765 680 C805 680,820 640,775 585Z"/>
    </g>
    <text x="590" y="740" text-anchor="middle" font-family="Arial" font-size="26" fill="#28383c">30ml x 5 pcs</text>
  </g>

  <text x="600" y="910" text-anchor="middle" font-family="Arial, sans-serif" font-size="18" fill="#7f625b" letter-spacing="5">PRIVATE LABEL · OEM / ODM · WHOLESALE</text>
</svg>